<?xml version="1.0" encoding="utf-8"?>
<!-- Generator: Adobe Illustrator 19.0.0, SVG Export Plug-In . SVG Version: 6.00 Build 0)  -->
<svg version="1.1" id="Layer_1" xmlns="http://www.w3.org/2000/svg" xmlns:xlink="http://www.w3.org/1999/xlink" x="0px" y="0px"
	 viewBox="0 0 96 96" style="enable-background:new 0 0 96 96;" xml:space="preserve">
<style type="text/css">
	.st0{fill:#333333;}
</style>
<g id="XMLID_1_">
	<path id="XMLID_19_" class="st0" d="M71.2,38.7H24.8c-2.6,0-4.6,2.1-4.6,4.6v9.3c0,2.6,2.1,4.6,4.6,4.6h46.4c2.6,0,4.6-2.1,4.6-4.6
		v-9.3C75.9,40.8,73.8,38.7,71.2,38.7z M29.4,52.6h-4.6v-9.3h4.6V52.6z M38.7,52.6h-4.6v-9.3h4.6V52.6z M48,52.6h-4.6v-9.3H48V52.6z
		 M57.3,52.6h-4.6v-9.3h4.6V52.6z M71.2,15.5H24.8c-2.6,0-4.6,2.1-4.6,4.6v9.3c0,2.6,2.1,4.6,4.6,4.6h46.4c2.6,0,4.6-2.1,4.6-4.6
		v-9.3C75.9,17.6,73.8,15.5,71.2,15.5z M29.4,29.4h-4.6v-9.3h4.6V29.4z M38.7,29.4h-4.6v-9.3h4.6V29.4z M48,29.4h-4.6v-9.3H48V29.4z
		 M57.3,29.4h-4.6v-9.3h4.6V29.4z M71.2,24.8h-4.6v-4.6h4.6V24.8z M71.2,61.9H24.8c-2.6,0-4.6,2.1-4.6,4.6v9.3
		c0,2.6,2.1,4.6,4.6,4.6h46.4c2.6,0,4.6-2.1,4.6-4.6v-9.3C75.9,64,73.8,61.9,71.2,61.9z M29.4,75.9h-4.6v-9.3h4.6V75.9z M38.7,75.9
		h-4.6v-9.3h4.6V75.9z M48,75.9h-4.6v-9.3H48V75.9z M57.3,75.9h-4.6v-9.3h4.6V75.9z"/>
</g>
</svg>
